<?xml version="1.0" encoding="utf-8"?>
<!-- Generator: Adobe Illustrator 15.0.0, SVG Export Plug-In . SVG Version: 6.00 Build 0)  -->
<!DOCTYPE svg PUBLIC "-//W3C//DTD SVG 1.1//EN" "http://www.w3.org/Graphics/SVG/1.1/DTD/svg11.dtd">
<svg version="1.1" id="Ebene_1" xmlns="http://www.w3.org/2000/svg" xmlns:xlink="http://www.w3.org/1999/xlink" x="0px" y="0px"
	 width="17px" height="17px" viewBox="0 0 17 17" enable-background="new 0 0 17 17" xml:space="preserve">
<g>
	<g>
		
			<polyline fill="none" stroke="#009640" stroke-width="0.5" stroke-linecap="round" stroke-linejoin="round" stroke-miterlimit="10" points="
			5.224,7.714 5.224,13.479 12.05,13.479 12.05,7.714 		"/>
		
			<line fill="none" stroke="#009640" stroke-width="0.5" stroke-linecap="round" stroke-linejoin="round" stroke-miterlimit="10" x1="8.636" y1="4.353" x2="2.949" y2="9.653"/>
		
			<line fill="none" stroke="#009640" stroke-width="0.5" stroke-linecap="round" stroke-linejoin="round" stroke-miterlimit="10" x1="8.636" y1="4.354" x2="14.324" y2="9.653"/>
	</g>
	
		<line fill="none" stroke="#009640" stroke-width="0.5" stroke-linecap="round" stroke-linejoin="round" stroke-miterlimit="10" x1="7.128" y1="12.528" x2="7.128" y2="10.409"/>
	
		<line fill="none" stroke="#009640" stroke-width="0.5" stroke-linecap="round" stroke-linejoin="round" stroke-miterlimit="10" x1="7.799" y1="12.528" x2="7.799" y2="10.409"/>
	<path fill="#029939" d="M8.062,9.271c0-0.345-0.28-0.625-0.624-0.625l0,0c-0.345,0-0.625,0.28-0.625,0.625v1.112
		c0,0.345,0.28,0.624,0.625,0.624l0,0c0.344,0,0.624-0.279,0.624-0.624V9.271z"/>
	<circle fill="#029939" cx="7.373" cy="8.221" r="0.427"/>
	
		<line fill="none" stroke="#029939" stroke-width="0.25" stroke-linecap="round" stroke-miterlimit="10" x1="6.638" y1="9.063" x2="6.638" y2="10.589"/>
	<polyline fill="none" stroke="#029939" stroke-width="0.25" stroke-linecap="round" stroke-miterlimit="10" points="8.239,9.063 
		8.708,9.827 9.66,9.97 	"/>
	
		<line fill="none" stroke="#029939" stroke-width="0.25" stroke-linecap="round" stroke-miterlimit="10" x1="9.479" y1="8.22" x2="9.479" y2="12.528"/>
	
		<line fill="none" stroke="#029939" stroke-width="0.25" stroke-linecap="round" stroke-miterlimit="10" x1="10.021" y1="8.22" x2="10.021" y2="12.528"/>
	<path fill="none" stroke="#029939" stroke-width="0.25" stroke-linecap="round" stroke-miterlimit="10" d="M2.794,9.517
		c0,0-1.189,0.73-1.189-0.665c0-1.396,0.44-1.5,0.801-1.5c0.362,0,1.396,0.078,1.396-0.465s-0.466-0.829,0.18-1.164
		c0.646-0.336,1.333-0.453,1.811-0.93c0.478-0.478,0.523-0.181,1.334-0.542c0.812-0.362,0.66-0.424,0.935-0.699
		s1.688-0.079,2.204,0.155c0.516,0.233,0.979-0.128,1.215,0.879c0.231,1.007-0.181,1.085,0.413,1.085
		c0.596,0,1.448,0.285,1.448,0.595c0,0.31,0.49,1.448,0.774,1.448c0.285,0,0.646,0.942,0.646,1.35c0,0.407-0.129,0.698-0.284,0.643"
		/>
	<path fill="none" stroke="#029939" stroke-width="0.25" stroke-linecap="round" stroke-miterlimit="10" d="M0.856,13.479
		c0,0-0.13-1.629,0.75-1.629c0.394,0,0.925-0.086,1.085-0.382c0,0,0.362-0.006,0.492,0.122c0.129,0.129,0.568,0.938,0.982,0.938
		c0.415,0,0.84,0.523,0.646,0.717c-0.194,0.195-0.052,0.234-0.052,0.234H0.856L0.856,13.479z"/>
	<path fill="none" stroke="#029939" stroke-width="0.25" stroke-linecap="round" stroke-miterlimit="10" d="M12.981,13.583h2.868
		c0,0-0.052-1.058-0.543-1.058c-0.49,0-1.24-0.261-1.24-0.441s-0.413-0.467-0.724-0.156s-0.361,1.009-0.361,1.009l-0.285,0.542
		L12.981,13.583z"/>
</g>
</svg>
