<?xml version="1.0" encoding="utf-8"?>
<!-- Generator: Adobe Illustrator 15.0.0, SVG Export Plug-In . SVG Version: 6.00 Build 0)  -->
<!DOCTYPE svg PUBLIC "-//W3C//DTD SVG 1.1//EN" "http://www.w3.org/Graphics/SVG/1.1/DTD/svg11.dtd">
<svg version="1.1" xmlns="http://www.w3.org/2000/svg" xmlns:xlink="http://www.w3.org/1999/xlink" x="0px" y="0px" width="17px"
	 height="17px" viewBox="0 0 17 17" enable-background="new 0 0 17 17" xml:space="preserve">
<g id="Ebene_1">
	<path fill="#312783" d="M16,8.501c0,4.142-0.411,7.5-0.917,7.5H1.917C1.411,16.001,1,12.644,1,8.501l0,0
		c0-4.143,0.411-7.5,0.917-7.5h13.166C15.589,1.001,16,4.358,16,8.501L16,8.501z"/>
</g>
<g id="Ebene_2">
	<g>
		<path fill="#FFFFFF" stroke="#FFFFFF" stroke-width="0.25" stroke-miterlimit="10" d="M5.23,11.552V7.363
			c0,0,0.073-2.034,1.525-2.034l3.539,0c1.453,0,1.526,2.034,1.526,2.034v4.189H5.23z"/>
		<path fill="#312783" stroke="#FFFFFF" stroke-width="0.25" stroke-miterlimit="10" d="M10.645,7.822c0,0,0.122-1.743-0.726-1.743
			H7.132C6.284,6.079,6.4,7.646,6.4,7.646L6.394,8.282h4.256L10.645,7.822z"/>
		<circle fill="#312783" stroke="#FFFFFF" stroke-width="0.25" stroke-miterlimit="10" cx="10.651" cy="10.097" r="0.521"/>
		<circle fill="#312783" stroke="#FFFFFF" stroke-width="0.25" stroke-miterlimit="10" cx="6.394" cy="10.099" r="0.521"/>
		<path fill="#312783" stroke="#FFFFFF" stroke-width="0.5" stroke-miterlimit="10" d="M8.522,5.329"/>
		<path fill="#312783" stroke="#FFFFFF" stroke-width="0.5" stroke-miterlimit="10" d="M8.522,3.44"/>
		
			<line fill="#312783" stroke="#FFFFFF" stroke-width="0.75" stroke-miterlimit="10" x1="5.873" y1="11.503" x2="5.873" y2="12.834"/>
		
			<line fill="#312783" stroke="#FFFFFF" stroke-width="0.75" stroke-miterlimit="10" x1="11.172" y1="11.503" x2="11.172" y2="12.834"/>
		
			<line fill="#312783" stroke="#FFFFFF" stroke-width="0.75" stroke-linecap="round" stroke-miterlimit="10" x1="10.005" y1="11.164" x2="12.968" y2="15.584"/>
		
			<line fill="#312783" stroke="#FFFFFF" stroke-width="0.75" stroke-linecap="round" stroke-miterlimit="10" x1="6.925" y1="11.396" x2="4.12" y2="15.584"/>
		
			<line fill="#312783" stroke="#FFFFFF" stroke-width="0.25" stroke-miterlimit="10" x1="10.933" y1="12.546" x2="6.154" y2="12.546"/>
		
			<line fill="#312783" stroke="#FFFFFF" stroke-width="0.25" stroke-miterlimit="10" x1="11.701" y1="13.693" x2="5.386" y2="13.693"/>
		
			<line fill="#312783" stroke="#FFFFFF" stroke-width="0.25" stroke-miterlimit="10" x1="12.588" y1="15.017" x2="4.499" y2="15.017"/>
	</g>
	<polyline fill="none" stroke="#FFFFFF" stroke-linecap="round" stroke-miterlimit="10" points="5.23,4.562 8.543,2.518 
		11.82,4.562 	"/>
</g>
</svg>
