<?xml version="1.0" encoding="utf-8"?>
<!-- Generator: Adobe Illustrator 15.0.0, SVG Export Plug-In . SVG Version: 6.00 Build 0)  -->
<!DOCTYPE svg PUBLIC "-//W3C//DTD SVG 1.1//EN" "http://www.w3.org/Graphics/SVG/1.1/DTD/svg11.dtd">
<svg version="1.1" id="Ebene_1" xmlns="http://www.w3.org/2000/svg" xmlns:xlink="http://www.w3.org/1999/xlink" x="0px" y="0px"
	 width="17px" height="17px" viewBox="0 0 17 17" enable-background="new 0 0 17 17" xml:space="preserve">
<g>
	<polygon fill="#FFFFFF" stroke="#F39200" stroke-miterlimit="10" points="4.384,2.918 14.334,2.918 10.338,7.833 8.14,7.833 	"/>
	<path fill="#FFFFFF" stroke="#F39200" stroke-width="0.5" stroke-miterlimit="10" d="M5.665,4.595c0,0,1.675-0.397,2.315-0.278
		c0.639,0.12,4.888,0.404,5.234-0.022"/>
	
		<line fill="none" stroke="#F39200" stroke-width="0.5" stroke-linecap="round" stroke-miterlimit="10" x1="8.18" y1="5.375" x2="2.667" y2="1"/>
	<ellipse fill="#F39200" stroke="#F39200" stroke-miterlimit="10" cx="9.919" cy="5.854" rx="0.56" ry="0.479"/>
	<path fill="#F39200" stroke="#F39200" stroke-width="0.25" stroke-miterlimit="10" d="M5.883,16c1.248,0,2.599-1.545,2.599-1.545
		L8.48,11.602c0.037-3.742-0.33-3.46-0.33-3.46h2.016c0,0-0.365-0.281-0.328,3.46l-0.003,2.854c0,0,1.353,1.545,2.601,1.545H5.883z"
		/>
</g>
</svg>
