<?xml version="1.0" encoding="utf-8"?>
<!-- Generator: Adobe Illustrator 15.0.0, SVG Export Plug-In . SVG Version: 6.00 Build 0)  -->
<!DOCTYPE svg PUBLIC "-//W3C//DTD SVG 1.1//EN" "http://www.w3.org/Graphics/SVG/1.1/DTD/svg11.dtd">
<svg version="1.1" id="Ebene_1" xmlns="http://www.w3.org/2000/svg" xmlns:xlink="http://www.w3.org/1999/xlink" x="0px" y="0px"
	 width="17px" height="17px" viewBox="0 0 17 17" enable-background="new 0 0 17 17" xml:space="preserve">
<g>
	
		<polyline fill="none" stroke="#FBBA00" stroke-width="0.25" stroke-linecap="round" stroke-linejoin="round" stroke-miterlimit="10" points="
		3.77,15.053 3.77,13.67 13.176,13.67 13.176,15.053 	"/>
	
		<rect x="3.77" y="12.857" fill="#FBBA00" stroke="#FBBA00" stroke-width="0.25" stroke-linecap="round" stroke-linejoin="round" stroke-miterlimit="10" width="9.407" height="0.813"/>
	
		<path fill="none" stroke="#FBBA00" stroke-width="0.25" stroke-linecap="round" stroke-linejoin="round" stroke-miterlimit="10" d="
		M12.799,12.857c0,0,0.615-0.391,0.377-0.602c-0.24-0.21-0.736-0.316-0.958-0.121c-0.222,0.197-1.301,0.572-1.096,0.572"/>
	
		<path fill="none" stroke="#FBBA00" stroke-width="0.25" stroke-linecap="round" stroke-linejoin="round" stroke-miterlimit="10" d="
		M4.009,12.708c0,0-0.068-0.452,0.581-0.452c0.65,0,4.447-0.224,4.447-0.224s1.607-0.288,1.607,0.676"/>
	<ellipse fill="#FBBA00" cx="11.279" cy="11.822" rx="0.636" ry="0.559"/>
	<polygon fill="none" stroke="#FBBA00" stroke-miterlimit="10" points="16,5.342 16,16 1,16 0.862,5.204 8.362,0.862 	"/>
</g>
<g>
	<path fill="#FBBA00" d="M1.772,5.368c0.304-0.072,0.792-0.12,1.271-0.12c0.696,0,1.144,0.12,1.471,0.392
		C4.794,5.848,4.97,6.167,4.97,6.591c0,0.528-0.352,0.983-0.912,1.184v0.024C4.57,7.919,5.17,8.342,5.17,9.143
		c0,0.463-0.184,0.823-0.464,1.08c-0.368,0.344-0.976,0.502-1.855,0.502c-0.479,0-0.848-0.031-1.079-0.063V5.368z M2.467,7.575
		h0.632c0.728,0,1.159-0.392,1.159-0.911c0-0.624-0.472-0.88-1.175-0.88c-0.32,0-0.504,0.024-0.616,0.048V7.575z M2.467,10.148
		c0.144,0.024,0.336,0.033,0.584,0.033c0.719,0,1.383-0.265,1.383-1.048c0-0.728-0.631-1.04-1.391-1.04H2.467V10.148z"/>
	<path fill="#FBBA00" d="M9.865,10.637c-0.152-0.15-0.295-0.312-0.504-0.52c-0.462,0.424-0.976,0.607-1.575,0.607
		c-1.047,0-1.654-0.703-1.654-1.512c0-0.735,0.439-1.239,1.055-1.575V7.615C6.907,7.263,6.74,6.863,6.74,6.487
		c0-0.664,0.472-1.335,1.367-1.335c0.671,0,1.192,0.439,1.192,1.143c0,0.568-0.328,1.016-1.184,1.439v0.032
		c1.705,1.974,2.746,3.097,1.311,1.495C9.18,9.639,9.842,8.367,9.945,7.687h0.641c-0.145,0.847-0.377,1.519-0.775,1.991
		c0.287,0.313,0.566,0.615,0.888,0.959H9.865z M9.018,9.709C8.698,9.357,8.099,8.702,7.499,8.007
		C7.203,8.199,6.803,8.534,6.803,9.109c0,0.615,0.456,1.088,1.111,1.088C8.371,10.197,8.762,9.99,9.018,9.709z M7.379,6.416
		c0,0.392,0.184,0.688,0.407,0.976c0.544-0.312,0.896-0.6,0.896-1.063C8.682,6,8.499,5.632,8.05,5.632
		C7.611,5.632,7.379,6,7.379,6.416z"/>
	<path fill="#FBBA00" d="M11.83,5.32c0.303-0.072,0.791-0.12,1.271-0.12c0.694,0,1.143,0.12,1.471,0.392
		c0.279,0.208,0.455,0.527,0.455,0.951c0,0.528-0.353,0.983-0.91,1.184v0.024c0.512,0.12,1.111,0.543,1.111,1.343
		c0,0.465-0.185,0.824-0.465,1.08c-0.367,0.344-0.976,0.504-1.854,0.504c-0.479,0-0.849-0.031-1.08-0.063L11.83,5.32L11.83,5.32z
		 M12.611,7.527h0.631c0.729,0,1.16-0.392,1.16-0.911c0-0.624-0.473-0.88-1.176-0.88c-0.32,0-0.504,0.024-0.615,0.048V7.527z
		 M12.611,10.102c0.144,0.023,0.334,0.032,0.582,0.032c0.721,0,1.385-0.265,1.385-1.048c0-0.727-0.633-1.039-1.393-1.039h-0.574
		V10.102z"/>
</g>
</svg>
