<?xml version="1.0" encoding="utf-8"?>
<!-- Generator: Adobe Illustrator 15.0.0, SVG Export Plug-In . SVG Version: 6.00 Build 0)  -->
<!DOCTYPE svg PUBLIC "-//W3C//DTD SVG 1.1//EN" "http://www.w3.org/Graphics/SVG/1.1/DTD/svg11.dtd">
<svg version="1.1" id="Ebene_1" xmlns="http://www.w3.org/2000/svg" xmlns:xlink="http://www.w3.org/1999/xlink" x="0px" y="0px"
	 width="17px" height="17px" viewBox="0 0 17 17" enable-background="new 0 0 17 17" xml:space="preserve">
<g>
	
		<polyline fill="none" stroke="#FBBA00" stroke-width="0.75" stroke-linecap="round" stroke-linejoin="round" stroke-miterlimit="10" points="
		2.353,17.566 2.353,15.77 14.58,15.77 14.58,17.566 	"/>
	
		<rect x="2.353" y="14.713" fill="#FBBA00" stroke="#FBBA00" stroke-width="0.75" stroke-linecap="round" stroke-linejoin="round" stroke-miterlimit="10" width="12.229" height="1.057"/>
	
		<path fill="none" stroke="#FBBA00" stroke-width="0.75" stroke-linecap="round" stroke-linejoin="round" stroke-miterlimit="10" d="
		M14.09,14.713c0,0,0.8-0.509,0.49-0.783c-0.313-0.273-0.957-0.41-1.246-0.157c-0.288,0.256-1.69,0.743-1.424,0.743"/>
	
		<path fill="none" stroke="#FBBA00" stroke-width="0.75" stroke-linecap="round" stroke-linejoin="round" stroke-miterlimit="10" d="
		M2.663,14.519c0,0-0.088-0.588,0.755-0.588c0.846,0,5.781-0.291,5.781-0.291s2.09-0.374,2.09,0.879"/>
	<ellipse fill="#FBBA00" stroke="#FBBA00" stroke-miterlimit="10" cx="12.116" cy="12.641" rx="0.826" ry="0.727"/>
	<polygon fill="none" stroke="#FBBA00" stroke-miterlimit="10" points="18.251,4.942 18.251,18.798 -1.249,18.798 -1.428,4.764 
		8.322,-0.881 	"/>
</g>
<g>
	<path fill="#FBBA00" d="M-0.226,4.45c0.396-0.094,1.03-0.156,1.652-0.156c0.905,0,1.487,0.156,1.913,0.51
		c0.364,0.271,0.593,0.685,0.593,1.236c0,0.687-0.458,1.278-1.186,1.539v0.031c0.665,0.156,1.445,0.706,1.445,1.747
		c0,0.602-0.239,1.07-0.603,1.404c-0.479,0.446-1.269,0.652-2.412,0.652c-0.623,0-1.103-0.041-1.403-0.081V4.45z M0.678,7.319H1.5
		c0.946,0,1.506-0.51,1.506-1.185c0-0.812-0.613-1.144-1.527-1.144c-0.416,0-0.655,0.031-0.801,0.063V7.319z M0.678,10.664
		c0.188,0.03,0.438,0.043,0.759,0.043c0.935,0,1.798-0.346,1.798-1.363c0-0.947-0.82-1.352-1.809-1.352H0.678V10.664z"/>
	<path fill="#FBBA00" d="M10.296,11.299c-0.198-0.195-0.384-0.405-0.655-0.676c-0.602,0.551-1.27,0.79-2.048,0.79
		c-1.361,0-2.15-0.914-2.15-1.967c0-0.955,0.571-1.61,1.372-2.047V7.371C6.45,6.913,6.233,6.393,6.233,5.904
		c0-0.863,0.613-1.735,1.776-1.735c0.873,0,1.55,0.57,1.55,1.486c0,0.738-0.426,1.321-1.539,1.871v0.042
		c2.217,2.566,3.57,4.026,1.704,1.943c-0.32,0.491,0.541-1.162,0.675-2.046h0.833c-0.188,1.102-0.49,1.975-1.008,2.588
		c0.373,0.407,0.736,0.8,1.155,1.247H10.296z M9.193,10.093C8.779,9.636,8,8.784,7.22,7.88C6.835,8.13,6.315,8.565,6.315,9.313
		c0,0.8,0.592,1.414,1.444,1.414C8.354,10.728,8.862,10.458,9.193,10.093z M7.063,5.812c0,0.51,0.239,0.895,0.529,1.269
		C8.3,6.675,8.758,6.3,8.758,5.699c0-0.428-0.238-0.906-0.822-0.906C7.365,4.792,7.063,5.271,7.063,5.812z"/>
	<path fill="#FBBA00" d="M12.85,4.387c0.394-0.093,1.028-0.156,1.653-0.156c0.901,0,1.485,0.156,1.912,0.509
		c0.363,0.271,0.592,0.686,0.592,1.236c0,0.687-0.46,1.278-1.184,1.54v0.031c0.665,0.156,1.444,0.706,1.444,1.746
		c0,0.604-0.241,1.071-0.604,1.404c-0.478,0.446-1.27,0.654-2.411,0.654c-0.623,0-1.104-0.04-1.404-0.081L12.85,4.387L12.85,4.387z
		 M13.865,7.256h0.82c0.947,0,1.509-0.51,1.509-1.184c0-0.811-0.615-1.144-1.529-1.144c-0.416,0-0.654,0.031-0.8,0.063V7.256z
		 M13.865,10.603c0.187,0.031,0.435,0.042,0.757,0.042c0.938,0,1.801-0.344,1.801-1.362c0-0.945-0.823-1.351-1.811-1.351h-0.747
		V10.603z"/>
</g>
</svg>
