<?xml version="1.0" encoding="utf-8"?>
<!-- Generator: Adobe Illustrator 15.0.0, SVG Export Plug-In . SVG Version: 6.00 Build 0)  -->
<!DOCTYPE svg PUBLIC "-//W3C//DTD SVG 1.1//EN" "http://www.w3.org/Graphics/SVG/1.1/DTD/svg11.dtd">
<svg version="1.1" id="Ebene_1" xmlns="http://www.w3.org/2000/svg" xmlns:xlink="http://www.w3.org/1999/xlink" x="0px" y="0px"
	 width="17px" height="17px" viewBox="0 0 17 17" enable-background="new 0 0 17 17" xml:space="preserve">
<path fill="#F39200" stroke="#F39200" stroke-width="0.25" stroke-linecap="round" stroke-linejoin="round" stroke-miterlimit="10" d="
	M11.11,15.936c0,0-0.829-0.76-0.967-1.209c0,0,0.103-7.623,0.796-8.865c0,0,0.16-0.685,0.32-1.551
	c0.141-0.782,0.281-1.712,0.298-2.416H5.853C5.87,2.622,6.02,3.591,6.167,4.39c0.154,0.828,0.307,1.472,0.307,1.472
	c0.69,1.242,0.793,8.865,0.793,8.865c-0.138,0.449-0.966,1.209-0.966,1.209H11.11z"/>
<path fill="#FFFFFF" stroke="#F39200" stroke-width="0.25" stroke-linecap="round" stroke-miterlimit="10" d="M6.133,4.197h5.146
	c0,0,0.315-1.751,0.278-2.302c-0.037-0.551-0.001-0.913-0.561-0.956c-0.56-0.042-0.714,0.356-0.973,0.141
	c-0.258-0.215-0.95,0.022-1.122-0.018S7.641,1.257,7.597,1.084C7.554,0.912,7.17,0.879,7.042,1.058
	C6.912,1.235,6.607,1.167,6.378,1.08C6.003,0.935,5.76,1.168,5.76,1.168L6.133,4.197z"/>
<line fill="#E8308A" stroke="#F39200" stroke-width="0.25" stroke-linecap="round" stroke-miterlimit="10" x1="5.825" y1="1.701" x2="11.561" y2="1.701"/>
</svg>
