<?xml version="1.0" encoding="utf-8"?>
<!-- Generator: Adobe Illustrator 15.0.0, SVG Export Plug-In . SVG Version: 6.00 Build 0)  -->
<!DOCTYPE svg PUBLIC "-//W3C//DTD SVG 1.1//EN" "http://www.w3.org/Graphics/SVG/1.1/DTD/svg11.dtd">
<svg version="1.1" xmlns="http://www.w3.org/2000/svg" xmlns:xlink="http://www.w3.org/1999/xlink" x="0px" y="0px" width="17px"
	 height="17px" viewBox="0 0 17 17" enable-background="new 0 0 17 17" xml:space="preserve">
<g id="Ebene_1">
	<path fill="#312783" d="M16,8.501c0,4.142-0.411,7.5-0.917,7.5H1.917C1.411,16.001,1,12.644,1,8.501l0,0
		c0-4.143,0.411-7.5,0.917-7.5h13.166C15.589,1.001,16,4.358,16,8.501L16,8.501z"/>
</g>
<g id="Ebene_2">
	<g>
		<path fill="#FFFFFF" stroke="#FFFFFF" stroke-width="0.25" stroke-miterlimit="10" d="M3.99,11.808V5.99
			c0,0,0.101-2.825,2.118-2.825l4.915,0c2.018,0,2.118,2.825,2.118,2.825v5.817L3.99,11.808z"/>
		<path fill="#312783" stroke="#FFFFFF" stroke-width="0.25" stroke-miterlimit="10" d="M12.242,6.729c0,0-0.563-2.523-1.74-2.523
			H6.631c-1.177,0-1.894,2.153-1.894,2.153v1.749h7.505V6.729z"/>
		<path fill="#312783" stroke="#FFFFFF" stroke-width="0.25" stroke-miterlimit="10" d="M12.423,10.293
			c0,0.5-0.404,0.905-0.902,0.905c-0.499,0-0.905-0.405-0.905-0.905c0-0.497,0.406-0.903,0.905-0.903
			C12.019,9.39,12.423,9.796,12.423,10.293z"/>
		<path fill="#312783" stroke="#FFFFFF" stroke-width="0.25" stroke-miterlimit="10" d="M6.51,10.293
			c0,0.497-0.406,0.905-0.904,0.905c-0.499,0-0.905-0.408-0.905-0.905s0.406-0.904,0.905-0.904C6.104,9.389,6.51,9.796,6.51,10.293z
			"/>
		<path fill="#312783" stroke="#FFFFFF" stroke-width="0.5" stroke-miterlimit="10" d="M8.562,3.165"/>
		
			<line fill="#312783" stroke="#FFFFFF" stroke-linecap="round" stroke-miterlimit="10" x1="12.242" y1="11.741" x2="12.242" y2="13.273"/>
		<path fill="#312783" stroke="#FFFFFF" stroke-width="0.75" stroke-linecap="round" stroke-miterlimit="10" d="M10.622,11.268"/>
	</g>
	
		<line fill="#312783" stroke="#FFFFFF" stroke-linecap="round" stroke-miterlimit="10" x1="4.858" y1="11.742" x2="4.858" y2="13.273"/>
</g>
</svg>
