<?xml version="1.0" encoding="utf-8"?>
<!-- Generator: Adobe Illustrator 15.0.0, SVG Export Plug-In . SVG Version: 6.00 Build 0)  -->
<!DOCTYPE svg PUBLIC "-//W3C//DTD SVG 1.1//EN" "http://www.w3.org/Graphics/SVG/1.1/DTD/svg11.dtd">
<svg version="1.1" id="Ebene_1" xmlns="http://www.w3.org/2000/svg" xmlns:xlink="http://www.w3.org/1999/xlink" x="0px" y="0px"
	 width="17px" height="17px" viewBox="0 0 17 17" enable-background="new 0 0 17 17" xml:space="preserve">
<g>
	<path fill="#F39200" stroke="#F39200" stroke-width="0.25" stroke-linecap="round" stroke-miterlimit="10" d="M12.701,8.701
		c0,0.155-0.014,0.325-0.035,0.507c-0.064,0.539-0.34,1.72-0.844,3.158c-0.672,1.898-1.478,3.659-1.478,3.659s-3.537,0-6.23,0
		S1,8.701,1,8.701H12.701z"/>
	<path fill="none" stroke="#F39200" stroke-linecap="round" stroke-miterlimit="10" d="M10.266,13.388
		c-0.496-0.177,3.696,1.471,5.38-1.657c1.298-2.412-1.765-2.609-2.825-2.678"/>
	<g>
		<g>
			<path fill="#F39200" d="M10.724,1.359C9.939,2.25,9.478,3.002,10.212,4.071c0.873,1.271-0.949,1.872-0.867,3.1
				c0.023,0.347,0.813,0.933,0.811,0.896c-0.069-1.026,1.098-1.514,1.144-2.536c0.019-0.426-0.279-0.838-0.498-1.176
				C10.29,3.57,11.006,2.899,11.499,2.34C11.683,2.131,10.831,1.238,10.724,1.359L10.724,1.359z"/>
		</g>
	</g>
</g>
<g>
	<g>
		<path fill="#F39200" d="M7.84,1.234C7.056,2.125,6.594,2.877,7.329,3.946c0.873,1.271-0.949,1.872-0.867,3.1
			c0.023,0.347,0.813,0.932,0.811,0.896C7.203,6.916,8.37,6.428,8.416,5.406C8.434,4.98,8.136,4.568,7.917,4.23
			C7.407,3.446,8.123,2.775,8.616,2.216C8.799,2.006,7.948,1.113,7.84,1.234L7.84,1.234z"/>
	</g>
</g>
<g>
	<g>
		<path fill="#F39200" d="M4.814,1.234C4.03,2.125,3.568,2.877,4.302,3.946c0.873,1.271-0.949,1.872-0.867,3.1
			c0.023,0.347,0.813,0.932,0.811,0.896C4.176,6.916,5.343,6.428,5.389,5.406C5.408,4.98,5.11,4.568,4.891,4.23
			C4.38,3.446,5.096,2.775,5.589,2.216C5.773,2.006,4.921,1.113,4.814,1.234L4.814,1.234z"/>
	</g>
</g>
</svg>
