<?xml version="1.0" encoding="utf-8"?>
<!-- Generator: Adobe Illustrator 15.0.0, SVG Export Plug-In . SVG Version: 6.00 Build 0)  -->
<!DOCTYPE svg PUBLIC "-//W3C//DTD SVG 1.1//EN" "http://www.w3.org/Graphics/SVG/1.1/DTD/svg11.dtd">
<svg version="1.1" id="Ebene_1" xmlns="http://www.w3.org/2000/svg" xmlns:xlink="http://www.w3.org/1999/xlink" x="0px" y="0px"
	 width="17px" height="17px" viewBox="0 0 17 17" enable-background="new 0 0 17 17" xml:space="preserve">
<g>
	<path fill="#FBBA00" stroke="#FBBA00" stroke-width="0.25" stroke-linejoin="round" stroke-miterlimit="10" d="M3.104,11.685
		c0,0-2.101-0.063-2.101-1.381s0-4.893,0-4.893S0.845,3.905,3.104,3.905s8.625,0,8.625,0s1.411,0.283,1.411,1.568
		c0,1.286,0,4.987,0,4.987H16c0,0-2.86,0.251-2.86,0.596s-0.22,0.628-0.502,0.628C12.356,11.685,3.104,11.685,3.104,11.685z"/>
	
		<circle fill="#FBBA00" stroke="#FFFFFF" stroke-width="0.25" stroke-linejoin="round" stroke-miterlimit="10" cx="3.198" cy="11.872" r="1.223"/>
	
		<circle fill="#FBBA00" stroke="#FFFFFF" stroke-width="0.25" stroke-linejoin="round" stroke-miterlimit="10" cx="11.3" cy="11.872" r="1.223"/>
	
		<rect x="5.676" y="5.441" fill="#FBBA00" stroke="#FFFFFF" stroke-width="0.25" stroke-linejoin="round" stroke-miterlimit="10" width="2.824" height="5.489"/>
	
		<rect x="6.208" y="6.101" fill="#FFFFFF" stroke="#FFFFFF" stroke-width="0.25" stroke-linejoin="round" stroke-miterlimit="10" width="1.913" height="1.694"/>
	
		<rect x="9.407" y="5.441" fill="#FFFFFF" stroke="#FFFFFF" stroke-width="0.25" stroke-linejoin="round" stroke-miterlimit="10" width="3.116" height="2.354"/>
	
		<rect x="1.598" y="5.441" fill="#FFFFFF" stroke="#FFFFFF" stroke-width="0.25" stroke-linejoin="round" stroke-miterlimit="10" width="3.325" height="2.504"/>
</g>
</svg>
