<?xml version="1.0" encoding="utf-8"?>
<!-- Generator: Adobe Illustrator 15.0.0, SVG Export Plug-In . SVG Version: 6.00 Build 0)  -->
<!DOCTYPE svg PUBLIC "-//W3C//DTD SVG 1.1//EN" "http://www.w3.org/Graphics/SVG/1.1/DTD/svg11.dtd">
<svg version="1.1" id="Ebene_1" xmlns="http://www.w3.org/2000/svg" xmlns:xlink="http://www.w3.org/1999/xlink" x="0px" y="0px"
	 width="17px" height="17px" viewBox="0 0 17 17" enable-background="new 0 0 17 17" xml:space="preserve">
<g>
	
		<path fill="#F39200" stroke="#F39200" stroke-width="0.25" stroke-linecap="round" stroke-linejoin="round" stroke-miterlimit="10" d="
		M2.853,12.526h11.319c0,0,1.461-0.999,0.786-0.992c-1.884,0.019-13.097-0.007-13.097-0.007S2.018,12.526,2.853,12.526z"/>
	
		<path fill="#F39200" stroke="#F39200" stroke-width="0.25" stroke-linecap="round" stroke-linejoin="round" stroke-miterlimit="10" d="
		M1.861,7.498c0,0,0.496-3.024,4.72-3.024h3.834c4.226,0,4.722,3.024,4.722,3.024H1.861z"/>
	<path fill="none" stroke="#F39200" stroke-width="0.5" stroke-linecap="round" stroke-linejoin="round" stroke-miterlimit="10" d="
		M1,9.864c0,0,0.144-0.521,0.874-0.521c2.004,0,0.299,0,13.263,0c0,0,0.863,0.574,0.863,0.783"/>
	
		<line fill="none" stroke="#F39200" stroke-width="0.75" stroke-linecap="round" stroke-linejoin="round" stroke-miterlimit="10" x1="2.278" y1="8.354" x2="5.93" y2="8.354"/>
	
		<line fill="none" stroke="#F39200" stroke-width="0.75" stroke-linecap="round" stroke-linejoin="round" stroke-miterlimit="10" x1="11.485" y1="8.354" x2="15.137" y2="8.354"/>
	
		<line fill="none" stroke="#F39200" stroke-width="0.75" stroke-linecap="round" stroke-linejoin="round" stroke-miterlimit="10" x1="7.038" y1="8.354" x2="10.521" y2="8.354"/>
</g>
<path fill="#F39200" d="M15.262,10.487c0-0.313-0.253-0.565-0.565-0.565H2.427c-0.313,0-0.565,0.253-0.565,0.565l0,0
	c0,0.313,0.253,0.565,0.565,0.565h12.27C15.009,11.053,15.262,10.8,15.262,10.487L15.262,10.487z"/>
</svg>
