<?xml version="1.0" encoding="utf-8"?>
<!-- Generator: Adobe Illustrator 15.0.0, SVG Export Plug-In . SVG Version: 6.00 Build 0)  -->
<!DOCTYPE svg PUBLIC "-//W3C//DTD SVG 1.1//EN" "http://www.w3.org/Graphics/SVG/1.1/DTD/svg11.dtd">
<svg version="1.1" id="Ebene_1" xmlns="http://www.w3.org/2000/svg" xmlns:xlink="http://www.w3.org/1999/xlink" x="0px" y="0px"
	 width="17px" height="17px" viewBox="0 0 17 17" enable-background="new 0 0 17 17" xml:space="preserve">
<line fill="#F39200" stroke="#FFFFFF" stroke-width="1.5" stroke-linecap="round" stroke-linejoin="round" stroke-miterlimit="10" x1="0.928" y1="8.323" x2="5.347" y2="8.323"/>
<line fill="#F39200" stroke="#FFFFFF" stroke-width="1.5" stroke-linecap="round" stroke-linejoin="round" stroke-miterlimit="10" x1="6.685" y1="8.323" x2="11.104" y2="8.323"/>
<line fill="#F39200" stroke="#FFFFFF" stroke-width="1.5" stroke-linecap="round" stroke-linejoin="round" stroke-miterlimit="10" x1="12.111" y1="8.323" x2="16.531" y2="8.323"/>
<g>
	
		<path fill="#F39200" stroke="#FFFFFF" stroke-width="0.5" stroke-linecap="round" stroke-linejoin="round" stroke-miterlimit="10" d="
		M1.667,13.129h13.627c0,0,1.836-1.542,1.02-1.533c-2.279,0.022-15.847-0.009-15.847-0.009S0.657,13.129,1.667,13.129z"/>
	
		<path fill="#F39200" stroke="#FFFFFF" stroke-width="0.5" stroke-linecap="round" stroke-linejoin="round" stroke-miterlimit="10" d="
		M0.466,7.288c0,0,0.601-3.659,5.712-3.659h4.639c5.113,0,5.714,3.659,5.714,3.659H0.466z"/>
	
		<line fill="#F39200" stroke="#F39200" stroke-width="0.75" stroke-linecap="round" stroke-linejoin="round" stroke-miterlimit="10" x1="0.971" y1="8.323" x2="5.391" y2="8.323"/>
	
		<line fill="none" stroke="#F39200" stroke-width="0.75" stroke-linecap="round" stroke-linejoin="round" stroke-miterlimit="10" x1="12.111" y1="8.323" x2="16.531" y2="8.323"/>
	
		<line fill="none" stroke="#F39200" stroke-width="0.75" stroke-linecap="round" stroke-linejoin="round" stroke-miterlimit="10" x1="6.731" y1="8.323" x2="10.946" y2="8.323"/>
</g>
<path fill="#F39200" stroke="#FFFFFF" stroke-width="0.5" stroke-miterlimit="10" d="M16.682,10.903
	c0-0.378-0.307-0.683-0.683-0.683H1.151c-0.378,0-0.684,0.306-0.684,0.683l0,0c0,0.379,0.307,0.684,0.684,0.684h14.848
	C16.375,11.589,16.682,11.282,16.682,10.903L16.682,10.903z"/>
<path fill="none" stroke="#F39200" stroke-width="0.75" stroke-linecap="round" stroke-miterlimit="10" d="M-0.26,10.214
	c0,0,0.987-0.554,1.42-0.554s14.977,0,14.977,0s0.77,0.409,1.035,0.674"/>
</svg>
