<?xml version="1.0" encoding="utf-8"?>
<!-- Generator: Adobe Illustrator 15.0.0, SVG Export Plug-In . SVG Version: 6.00 Build 0)  -->
<!DOCTYPE svg PUBLIC "-//W3C//DTD SVG 1.1//EN" "http://www.w3.org/Graphics/SVG/1.1/DTD/svg11.dtd">
<svg version="1.1" id="Ebene_1" xmlns="http://www.w3.org/2000/svg" xmlns:xlink="http://www.w3.org/1999/xlink" x="0px" y="0px"
	 width="17px" height="17px" viewBox="0 0 17 17" enable-background="new 0 0 17 17" xml:space="preserve">
<g>
	<polygon fill="none" stroke="#FBBA00" stroke-miterlimit="10" points="16.959,6.867 16.959,14.684 5.959,14.684 5.959,6.867 
		11.459,3.683 	"/>
	
		<polyline fill="none" stroke="#FBBA00" stroke-width="0.25" stroke-linecap="round" stroke-linejoin="round" stroke-miterlimit="10" points="
		6.916,13.752 6.916,12.436 15.873,12.436 15.873,13.752 	"/>
	
		<rect x="6.916" y="11.66" fill="#FBBA00" stroke="#FBBA00" stroke-width="0.25" stroke-linecap="round" stroke-linejoin="round" stroke-miterlimit="10" width="8.959" height="0.773"/>
	
		<path fill="#FFFFFF" stroke="#FBBA00" stroke-width="0.25" stroke-linecap="round" stroke-linejoin="round" stroke-miterlimit="10" d="
		M15.516,11.66c0,0,0.586-0.371,0.357-0.571s-0.701-0.302-0.912-0.116c-0.211,0.188-1.238,0.547-1.043,0.547"/>
	
		<path fill="#FFFFFF" stroke="#FBBA00" stroke-width="0.25" stroke-linecap="round" stroke-linejoin="round" stroke-miterlimit="10" d="
		M7.144,11.52c0,0-0.065-0.432,0.553-0.432c0.62,0,4.235-0.213,4.235-0.213s1.531-0.273,1.531,0.645"/>
</g>
<polyline fill="none" stroke="#FBBA00" stroke-width="0.5" stroke-linecap="round" stroke-miterlimit="10" points="2.215,13.452 
	3.103,11.424 4.098,13.452 "/>
<line fill="none" stroke="#FBBA00" stroke-width="0.5" stroke-linecap="round" stroke-miterlimit="10" x1="3.103" y1="11.424" x2="3.103" y2="8.882"/>
<circle fill="#FBBA00" stroke="#FBBA00" stroke-width="0.25" stroke-linecap="round" stroke-miterlimit="10" cx="3.157" cy="8.25" r="0.632"/>
<polyline fill="none" stroke="#FBBA00" stroke-width="0.5" stroke-linecap="round" stroke-miterlimit="10" points="1.328,10.762 
	3.103,9.211 4.985,10.792 "/>
</svg>
