<?xml version="1.0" encoding="utf-8"?>
<!-- Generator: Adobe Illustrator 15.0.0, SVG Export Plug-In . SVG Version: 6.00 Build 0)  -->
<!DOCTYPE svg PUBLIC "-//W3C//DTD SVG 1.1//EN" "http://www.w3.org/Graphics/SVG/1.1/DTD/svg11.dtd">
<svg version="1.1" id="Ebene_1" xmlns="http://www.w3.org/2000/svg" xmlns:xlink="http://www.w3.org/1999/xlink" x="0px" y="0px"
	 width="17px" height="17px" viewBox="0 0 17 17" enable-background="new 0 0 17 17" xml:space="preserve">
<g>
	<polygon fill="none" stroke="#FBBA00" stroke-miterlimit="10" points="19.001,6.293 19.001,16.454 4.701,16.454 4.701,6.293 
		11.851,2.154 	"/>
	
		<polyline fill="none" stroke="#FBBA00" stroke-width="0.75" stroke-linecap="round" stroke-linejoin="round" stroke-miterlimit="10" points="
		5.945,15.243 5.945,13.532 17.589,13.532 17.589,15.243 	"/>
	
		<rect x="5.945" y="12.524" fill="#FBBA00" stroke="#FBBA00" stroke-width="0.75" stroke-linecap="round" stroke-linejoin="round" stroke-miterlimit="10" width="11.646" height="1.005"/>
	
		<path fill="#FFFFFF" stroke="#FBBA00" stroke-width="0.75" stroke-linecap="round" stroke-linejoin="round" stroke-miterlimit="10" d="
		M17.589,12.341c0,0,0.298-0.299,0-0.56c-0.297-0.26-0.911-0.393-1.186-0.151c-0.274,0.245-1.609,0.711-1.355,0.711"/>
	
		<path fill="#FFFFFF" stroke="#FBBA00" stroke-width="0.75" stroke-linecap="round" stroke-linejoin="round" stroke-miterlimit="10" d="
		M6.242,12.341c0,0-0.084-0.561,0.718-0.561c0.806,0,5.506-0.277,5.506-0.277s1.99-0.355,1.99,0.838"/>
</g>
<polyline fill="none" stroke="#FBBA00" stroke-linecap="round" stroke-miterlimit="10" points="-0.155,15.245 1,12.608 
	2.293,15.245 "/>
<line fill="none" stroke="#FBBA00" stroke-linecap="round" stroke-miterlimit="10" x1="1" y1="12.608" x2="1" y2="9.304"/>
<circle fill="#FBBA00" stroke="#FBBA00" stroke-width="0.75" stroke-linecap="round" stroke-miterlimit="10" cx="1.069" cy="8.178" r="0.821"/>
<polyline fill="none" stroke="#FBBA00" stroke-linecap="round" stroke-miterlimit="10" points="-1.308,11.748 1,9.731 3.446,11.787 
	"/>
</svg>
