<?xml version="1.0" encoding="utf-8"?>
<!-- Generator: Adobe Illustrator 15.0.0, SVG Export Plug-In . SVG Version: 6.00 Build 0)  -->
<!DOCTYPE svg PUBLIC "-//W3C//DTD SVG 1.1//EN" "http://www.w3.org/Graphics/SVG/1.1/DTD/svg11.dtd">
<svg version="1.1" id="Ebene_1" xmlns="http://www.w3.org/2000/svg" xmlns:xlink="http://www.w3.org/1999/xlink" x="0px" y="0px"
	 width="17px" height="17px" viewBox="0 0 17 17" enable-background="new 0 0 17 17" xml:space="preserve">
<g>
	<g>
		
			<polyline fill="none" stroke="#FBBA00" stroke-width="0.25" stroke-linecap="round" stroke-linejoin="round" stroke-miterlimit="10" points="
			3.011,14.527 3.011,12.932 13.863,12.932 13.863,14.527 		"/>
		
			<rect x="3.011" y="11.994" fill="#FBBA00" stroke="#FBBA00" stroke-width="0.25" stroke-linecap="round" stroke-linejoin="round" stroke-miterlimit="10" width="10.854" height="0.938"/>
		
			<path fill="#FFFFFF" stroke="#FBBA00" stroke-width="0.25" stroke-linecap="round" stroke-linejoin="round" stroke-miterlimit="10" d="
			M13.43,11.994c0,0,0.467-0.451,0.191-0.695c-0.277-0.24-0.607-0.363-0.863-0.139c-0.256,0.227-1.501,0.66-1.264,0.66"/>
		
			<path fill="#FFFFFF" stroke="#FBBA00" stroke-width="0.25" stroke-linecap="round" stroke-linejoin="round" stroke-miterlimit="10" d="
			M3.287,11.82c0,0-0.079-0.521,0.671-0.521s5.13-0.258,5.13-0.258s1.855-0.332,1.855,0.779"/>
		<ellipse fill="#FBBA00" cx="11.677" cy="10.799" rx="0.732" ry="0.645"/>
		<polygon fill="none" stroke="#FBBA00" stroke-miterlimit="10" points="16,15.982 1,15.982 1,6.027 8.5,1.017 16,6.027 		"/>
	</g>
	
		<polyline fill="none" stroke="#FBBA00" stroke-width="0.25" stroke-linecap="round" stroke-linejoin="round" stroke-miterlimit="10" points="
		3.011,12.932 2.979,7.847 13.832,7.847 13.832,12.717 	"/>
	
		<rect x="2.979" y="6.91" fill="#FBBA00" stroke="#FBBA00" stroke-width="0.25" stroke-linecap="round" stroke-linejoin="round" stroke-miterlimit="10" width="10.854" height="0.938"/>
	
		<path fill="#FFFFFF" stroke="#FBBA00" stroke-width="0.25" stroke-linecap="round" stroke-linejoin="round" stroke-miterlimit="10" d="
		M13.396,6.91c0,0,0.711-0.45,0.436-0.693c-0.277-0.243-0.852-0.365-1.105-0.14c-0.256,0.228-1.502,0.661-1.266,0.661"/>
	
		<path fill="#FFFFFF" stroke="#FBBA00" stroke-width="0.25" stroke-linecap="round" stroke-linejoin="round" stroke-miterlimit="10" d="
		M3.255,6.737c0,0-0.079-0.522,0.67-0.522c0.75,0,5.132-0.258,5.132-0.258s1.854-0.333,1.854,0.78"/>
	<ellipse fill="#FBBA00" cx="11.645" cy="5.715" rx="0.731" ry="0.645"/>
</g>
</svg>
