<?xml version="1.0" encoding="utf-8"?>
<!-- Generator: Adobe Illustrator 15.0.0, SVG Export Plug-In . SVG Version: 6.00 Build 0)  -->
<!DOCTYPE svg PUBLIC "-//W3C//DTD SVG 1.1//EN" "http://www.w3.org/Graphics/SVG/1.1/DTD/svg11.dtd">
<svg version="1.1" id="Ebene_1" xmlns="http://www.w3.org/2000/svg" xmlns:xlink="http://www.w3.org/1999/xlink" x="0px" y="0px"
	 width="17px" height="17px" viewBox="0 0 17 17" enable-background="new 0 0 17 17" xml:space="preserve">
<g>
	<g>
		
			<polyline fill="none" stroke="#FBBA00" stroke-width="0.75" stroke-linecap="round" stroke-linejoin="round" stroke-miterlimit="10" points="
			1.364,16.335 1.364,14.261 15.472,14.261 15.472,16.335 		"/>
		
			<rect x="1.364" y="13.042" fill="#FBBA00" stroke="#FBBA00" stroke-width="0.75" stroke-linecap="round" stroke-linejoin="round" stroke-miterlimit="10" width="14.111" height="1.219"/>
		
			<path fill="#FFFFFF" stroke="#FBBA00" stroke-width="0.75" stroke-linecap="round" stroke-linejoin="round" stroke-miterlimit="10" d="
			M15.271,12.816c0,0,0.245-0.36-0.113-0.678c-0.36-0.313-0.79-0.473-1.122-0.181c-0.333,0.295-1.951,0.858-1.643,0.858"/>
		
			<path fill="#FFFFFF" stroke="#FBBA00" stroke-width="0.75" stroke-linecap="round" stroke-linejoin="round" stroke-miterlimit="10" d="
			M1.723,12.816c0,0-0.103-0.678,0.872-0.678s6.668-0.336,6.668-0.336s2.412-0.432,2.412,1.014"/>
		<ellipse fill="#FBBA00" stroke="#FBBA00" stroke-miterlimit="10" cx="12.63" cy="10.65" rx="0.952" ry="0.838"/>
		<polygon fill="none" stroke="#FBBA00" stroke-miterlimit="10" points="18.25,18.227 -1.25,18.227 -1.25,5.285 8.5,-1.228 
			18.25,5.285 		"/>
	</g>
	
		<polyline fill="none" stroke="#FBBA00" stroke-width="0.75" stroke-linecap="round" stroke-linejoin="round" stroke-miterlimit="10" points="
		1.364,14.261 1.323,7.651 15.432,7.651 15.432,13.981 	"/>
	
		<rect x="1.323" y="6.433" fill="#FBBA00" stroke="#FBBA00" stroke-width="0.75" stroke-linecap="round" stroke-linejoin="round" stroke-miterlimit="10" width="14.11" height="1.219"/>
	
		<path fill="#FFFFFF" stroke="#FBBA00" stroke-width="0.75" stroke-linecap="round" stroke-linejoin="round" stroke-miterlimit="10" d="
		M15.09,6.208c0,0,0.699-0.36,0.342-0.676c-0.36-0.315-1.107-0.474-1.438-0.182c-0.332,0.296-1.952,0.859-1.646,0.859"/>
	
		<path fill="#FFFFFF" stroke="#FBBA00" stroke-width="0.75" stroke-linecap="round" stroke-linejoin="round" stroke-miterlimit="10" d="
		M1.681,6.208c0,0-0.103-0.679,0.871-0.679c0.975,0,6.671-0.335,6.671-0.335s2.411-0.433,2.411,1.014"/>
	<ellipse fill="#FBBA00" stroke="#FBBA00" stroke-miterlimit="10" cx="12.588" cy="4.041" rx="0.951" ry="0.839"/>
</g>
</svg>
