<?xml version="1.0" encoding="utf-8"?>
<!-- Generator: Adobe Illustrator 15.0.0, SVG Export Plug-In . SVG Version: 6.00 Build 0)  -->
<!DOCTYPE svg PUBLIC "-//W3C//DTD SVG 1.1//EN" "http://www.w3.org/Graphics/SVG/1.1/DTD/svg11.dtd">
<svg version="1.1" id="Ebene_1" xmlns="http://www.w3.org/2000/svg" xmlns:xlink="http://www.w3.org/1999/xlink" x="0px" y="0px"
	 width="17px" height="17px" viewBox="0 0 17 17" enable-background="new 0 0 17 17" xml:space="preserve">
<g>
	<g>
		
			<polyline fill="none" stroke="#FBBA00" stroke-width="0.75" stroke-linecap="round" stroke-linejoin="round" stroke-miterlimit="10" points="
			0.521,17.021 0.521,14.71 16.242,14.71 16.242,17.021 		"/>
		
			<rect x="0.521" y="13.352" fill="#FBBA00" stroke="#FBBA00" stroke-width="0.75" stroke-linecap="round" stroke-linejoin="round" stroke-miterlimit="10" width="15.722" height="1.358"/>
		
			<path fill="#FFFFFF" stroke="#FBBA00" stroke-width="0.75" stroke-linecap="round" stroke-linejoin="round" stroke-miterlimit="10" d="
			M16.146,13.104c0,0,0.496-0.404,0.097-0.757c-0.402-0.352-1.231-0.526-1.6-0.202c-0.372,0.33-2.175,0.957-1.832,0.957"/>
		
			<path fill="#FFFFFF" stroke="#FBBA00" stroke-width="0.75" stroke-linecap="round" stroke-linejoin="round" stroke-miterlimit="10" d="
			M0.921,13.103c0,0-0.114-0.756,0.971-0.756c1.087,0,7.432-0.372,7.432-0.372s2.688-0.48,2.688,1.13"/>
		<ellipse fill="#FBBA00" stroke="#FBBA00" stroke-miterlimit="10" cx="13.302" cy="10.974" rx="1.062" ry="0.935"/>
	</g>
	<polygon fill="none" stroke="#FBBA00" stroke-miterlimit="10" points="18.25,4.394 18.25,18.25 -1.25,18.25 -1.25,4.394 8.5,-1.25 
			"/>
</g>
</svg>
