<?xml version="1.0" encoding="utf-8"?>
<!-- Generator: Adobe Illustrator 15.0.0, SVG Export Plug-In . SVG Version: 6.00 Build 0)  -->
<!DOCTYPE svg PUBLIC "-//W3C//DTD SVG 1.1//EN" "http://www.w3.org/Graphics/SVG/1.1/DTD/svg11.dtd">
<svg version="1.1" id="Ebene_1" xmlns="http://www.w3.org/2000/svg" xmlns:xlink="http://www.w3.org/1999/xlink" x="0px" y="0px"
	 width="17px" height="17px" viewBox="0 0 17 17" enable-background="new 0 0 17 17" xml:space="preserve">
<g>
	
		<polyline fill="none" stroke="#FBBA00" stroke-width="0.25" stroke-linecap="round" stroke-linejoin="round" stroke-miterlimit="10" points="
		1.684,15.354 1.684,13.378 15.121,13.378 15.121,15.354 	"/>
	
		<rect x="1.684" y="12.217" fill="#FBBA00" stroke="#FBBA00" stroke-width="0.25" stroke-linecap="round" stroke-linejoin="round" stroke-miterlimit="10" width="13.438" height="1.161"/>
	
		<path fill="#FFFFFF" stroke="#FBBA00" stroke-width="0.25" stroke-linecap="round" stroke-linejoin="round" stroke-miterlimit="10" d="
		M14.583,12.217c0,0,0.879-0.557,0.538-0.857c-0.344-0.301-1.053-0.451-1.368-0.174c-0.317,0.282-1.858,0.818-1.565,0.818"/>
	
		<path fill="#FFFFFF" stroke="#FBBA00" stroke-width="0.25" stroke-linecap="round" stroke-linejoin="round" stroke-miterlimit="10" d="
		M2.026,12.004c0,0-0.098-0.646,0.83-0.646c0.929,0,6.352-0.318,6.352-0.318s2.298-0.411,2.298,0.966"/>
	<ellipse fill="#FBBA00" cx="12.413" cy="10.738" rx="0.907" ry="0.798"/>
	<polygon fill="none" stroke="#FBBA00" stroke-miterlimit="10" points="16,5.342 16,16 1,16 1,5.342 8.5,1 	"/>
</g>
</svg>
