<?xml version="1.0" encoding="utf-8"?>
<!-- Generator: Adobe Illustrator 15.0.0, SVG Export Plug-In . SVG Version: 6.00 Build 0)  -->
<!DOCTYPE svg PUBLIC "-//W3C//DTD SVG 1.1//EN" "http://www.w3.org/Graphics/SVG/1.1/DTD/svg11.dtd">
<svg version="1.1" id="Ebene_1" xmlns="http://www.w3.org/2000/svg" xmlns:xlink="http://www.w3.org/1999/xlink" x="0px" y="0px"
	 width="17px" height="17px" viewBox="0 0 17 17" enable-background="new 0 0 17 17" xml:space="preserve">
<polygon fill="#D51317" stroke="#D51317" stroke-width="0.25" stroke-linejoin="round" stroke-miterlimit="10" points="
	13.301,3.706 6.816,1.147 6.816,13.058 13.199,15.186 "/>
<polygon fill="#D51317" stroke="#D51317" stroke-width="0.25" stroke-linejoin="round" stroke-miterlimit="10" points="9.585,4.456 
	3.7,2.186 3.7,13.646 9.585,16 "/>
<path fill="#FFFFFF" stroke="#D51317" stroke-width="0.25" stroke-linejoin="round" stroke-miterlimit="10" d="M3.7,2.186
	c0.158-1.811,3.246-1.01,3.246-1.01l6.039,2.446c0,0-3.399-0.902-3.399,0.828L3.7,2.186z"/>
<path fill="#FFFFFF" stroke="#D51317" stroke-width="0.25" stroke-miterlimit="10" d="M9.683,15.842"/>
<path fill="#FFFFFF" stroke="#D51317" stroke-width="0.25" stroke-linejoin="round" stroke-miterlimit="10" d="M12.984,15.072V3.614
	c0,0-3.399-0.885-3.399,0.836v11.548C9.585,16,10.401,14.755,12.984,15.072z"/>
<polygon fill="#FFFFFF" points="5.892,10.056 6.819,10.418 6.808,5.002 5.892,4.618 "/>
<polygon fill="#FFFFFF" points="5.896,12.274 6.815,12.619 6.815,11.179 5.896,10.817 "/>
</svg>
