<?xml version="1.0" encoding="utf-8"?>
<!-- Generator: Adobe Illustrator 15.0.0, SVG Export Plug-In . SVG Version: 6.00 Build 0)  -->
<!DOCTYPE svg PUBLIC "-//W3C//DTD SVG 1.1//EN" "http://www.w3.org/Graphics/SVG/1.1/DTD/svg11.dtd">
<svg version="1.1" id="Ebene_1" xmlns="http://www.w3.org/2000/svg" xmlns:xlink="http://www.w3.org/1999/xlink" x="0px" y="0px"
	 width="17px" height="17px" viewBox="0 0 17 17" enable-background="new 0 0 17 17" xml:space="preserve">
<g>
	<path fill="#FFFFFF" stroke="#CC1417" stroke-width="0.75" stroke-miterlimit="10" d="M2.433,5.105v10.129h3.75V7.303
		c0,0,0-2.198,2.235-2.198c2.237,0,2.201,2.198,2.201,2.379c0,0.179,0,7.75,0,7.75h3.929V5.105l0.476-0.535V1.83l-0.476-0.18H2.433
		L1.976,1.794V4.57L2.433,5.105z"/>
	
		<ellipse fill="#CC1417" stroke="#CC1417" stroke-width="0.25" stroke-miterlimit="10" cx="4.373" cy="7.093" rx="0.632" ry="1.514"/>
	
		<ellipse fill="#CC1417" stroke="#CC1417" stroke-width="0.25" stroke-miterlimit="10" cx="12.713" cy="7.093" rx="0.632" ry="1.514"/>
	
		<rect x="3.344" y="10.484" fill="#CC1417" stroke="#CC1417" stroke-width="0.25" stroke-miterlimit="10" width="1.982" height="3.893"/>
	
		<rect x="11.722" y="10.644" fill="#CC1417" stroke="#CC1417" stroke-width="0.25" stroke-miterlimit="10" width="1.985" height="3.894"/>
	
		<rect x="2.433" y="1" fill="#CC1417" stroke="#CC1417" stroke-width="0.25" stroke-miterlimit="10" width="11.945" height="0.649"/>
	<line fill="none" stroke="#CC1417" stroke-miterlimit="10" x1="1.976" y1="3.911" x2="15.024" y2="3.911"/>
	<polygon fill="#CC1417" stroke="#CC1417" stroke-width="0.25" stroke-miterlimit="10" points="2.433,15.234 1.976,16 15.024,16 
		14.547,15.234 	"/>
</g>
</svg>
