<?xml version="1.0" encoding="utf-8"?>
<!-- Generator: Adobe Illustrator 15.0.0, SVG Export Plug-In . SVG Version: 6.00 Build 0)  -->
<!DOCTYPE svg PUBLIC "-//W3C//DTD SVG 1.1//EN" "http://www.w3.org/Graphics/SVG/1.1/DTD/svg11.dtd">
<svg version="1.1" id="Ebene_1" xmlns="http://www.w3.org/2000/svg" xmlns:xlink="http://www.w3.org/1999/xlink" x="0px" y="0px"
	 width="17px" height="17px" viewBox="0 0 17 17" enable-background="new 0 0 17 17" xml:space="preserve">
<g>
	
		<polyline fill="none" stroke="#FBBA00" stroke-width="0.25" stroke-linecap="round" stroke-linejoin="round" stroke-miterlimit="10" points="
		0.863,10.427 0.863,8.233 15.776,8.233 15.776,10.427 	"/>
	
		<rect x="0.863" y="6.944" fill="#FBBA00" stroke="#FBBA00" stroke-width="0.25" stroke-linecap="round" stroke-linejoin="round" stroke-miterlimit="10" width="14.913" height="1.289"/>
	
		<path fill="none" stroke="#FBBA00" stroke-width="0.25" stroke-linecap="round" stroke-linejoin="round" stroke-miterlimit="10" d="
		M15.179,6.944c0,0,0.976-0.618,0.598-0.953c-0.381-0.333-1.167-0.502-1.519-0.193c-0.353,0.314-2.063,0.91-1.737,0.91"/>
	
		<path fill="none" stroke="#FBBA00" stroke-width="0.25" stroke-linecap="round" stroke-linejoin="round" stroke-miterlimit="10" d="
		M1.243,6.708c0,0-0.109-0.716,0.921-0.716c1.031,0,7.049-0.356,7.049-0.356s2.551-0.456,2.551,1.072"/>
	<ellipse fill="#FBBA00" cx="12.771" cy="5.303" rx="1.007" ry="0.885"/>
</g>
<path fill="#FBBA00" stroke="#FBBA00" stroke-width="0.25" stroke-linejoin="round" stroke-miterlimit="10" d="M1.383,12.837h14.393
	c0,0-0.49-1.196-0.717-1.196s-2.023-0.195-2.288-0.195c-0.266,0-1.366-1.39-1.689-1.39c-0.322,0-4.962-0.436-5.399,0
	c-0.549,0.551-0.517,1.454-1.035,1.454s-3.785,0.195-3.785,0.551s0,0.776,0,0.776H1.383z"/>
<circle fill="#FBBA00" stroke="#FBBA00" stroke-width="0.25" stroke-miterlimit="10" cx="3.646" cy="12.969" r="0.938"/>
<circle fill="#FBBA00" stroke="#FBBA00" stroke-width="0.25" stroke-miterlimit="10" cx="12.479" cy="12.969" r="1.007"/>
<path fill="#FFFFFF" stroke="#FFFFFF" stroke-width="0.25" stroke-linejoin="round" stroke-miterlimit="10" d="M5.651,11.323h2.49
	l0.179-1.17c0,0-1.602-0.007-2.087,0c-0.558,0.007-0.905,1.17-0.905,1.17H5.651z"/>
<path fill="#FFFFFF" stroke="#FFFFFF" stroke-width="0.25" stroke-linejoin="round" stroke-miterlimit="10" d="M9.046,10.151
	l-0.194,1.172h3.168c0,0-0.743-1.042-0.938-1.042C10.889,10.281,9.369,10.151,9.046,10.151z"/>
</svg>
