<?xml version="1.0" encoding="utf-8"?>
<!-- Generator: Adobe Illustrator 15.0.0, SVG Export Plug-In . SVG Version: 6.00 Build 0)  -->
<!DOCTYPE svg PUBLIC "-//W3C//DTD SVG 1.1//EN" "http://www.w3.org/Graphics/SVG/1.1/DTD/svg11.dtd">
<svg version="1.1" id="Ebene_1" xmlns="http://www.w3.org/2000/svg" xmlns:xlink="http://www.w3.org/1999/xlink" x="0px" y="0px"
	 width="10px" height="10px" viewBox="0 0 10 10" enable-background="new 0 0 10 10" xml:space="preserve">
<rect x="-2.5" y="-2.5" fill="#312783" width="15" height="15"/>
<g>
	<path fill="#FFFFFF" d="M0.894-1.462C1.724-1.6,2.813-1.719,4.197-1.719c1.702,0,2.947,0.396,3.741,1.108
		C8.653,0.023,9.104,0.994,9.104,2.18c0,1.207-0.353,2.157-1.028,2.848C7.147,5.999,5.683,6.496,4,6.496
		c-0.514,0-0.99-0.022-1.384-0.122v5.344H0.894V-1.462z M2.615,4.969c0.375,0.1,0.851,0.138,1.425,0.138
		c2.077,0,3.345-1.028,3.345-2.829c0-1.78-1.268-2.631-3.146-2.631c-0.751,0-1.326,0.061-1.623,0.138V4.969z"/>
</g>
</svg>
