<?xml version="1.0" encoding="utf-8"?>
<!-- Generator: Adobe Illustrator 15.0.0, SVG Export Plug-In . SVG Version: 6.00 Build 0)  -->
<!DOCTYPE svg PUBLIC "-//W3C//DTD SVG 1.1//EN" "http://www.w3.org/Graphics/SVG/1.1/DTD/svg11.dtd">
<svg version="1.1" id="Ebene_1" xmlns="http://www.w3.org/2000/svg" xmlns:xlink="http://www.w3.org/1999/xlink" x="0px" y="0px"
	 width="17px" height="17px" viewBox="0 0 17 17" enable-background="new 0 0 17 17" xml:space="preserve">
<g>
	<path fill="none" stroke="#009640" stroke-width="0.5" stroke-linecap="round" stroke-linejoin="round" stroke-miterlimit="10" d="
		M11.983,11.021c0,0-1.624-0.854-3.249-1.879C8.402,8.934,8.072,8.718,7.752,8.497C6.28,7.494,5.102,6.461,5.583,5.979h6.292
		c1.097,1.098-6.4,5.043-6.4,5.043"/>
	
		<path fill="#009640" stroke="#009640" stroke-width="0.25" stroke-linecap="round" stroke-linejoin="round" stroke-miterlimit="10" d="
		M14.16,11.021c0,0-1.844-1.23-1.844-2.763H16C16.003,9.791,14.16,11.021,14.16,11.021"/>
	
		<path fill="#009640" stroke="#009640" stroke-width="0.25" stroke-linecap="round" stroke-linejoin="round" stroke-miterlimit="10" d="
		M2.841,11.021c0,0-1.841-1.23-1.841-2.763h3.683C4.683,9.791,2.841,11.021,2.841,11.021"/>
	
		<polygon fill="#009640" stroke="#009640" stroke-width="0.25" stroke-linecap="round" stroke-linejoin="round" stroke-miterlimit="10" points="
		5.486,6.247 11.979,6.247 8.735,9.143 	"/>
</g>
</svg>
