<?xml version="1.0" encoding="utf-8"?>
<!-- Generator: Adobe Illustrator 15.0.0, SVG Export Plug-In . SVG Version: 6.00 Build 0)  -->
<!DOCTYPE svg PUBLIC "-//W3C//DTD SVG 1.1//EN" "http://www.w3.org/Graphics/SVG/1.1/DTD/svg11.dtd">
<svg version="1.1" id="Ebene_1" xmlns="http://www.w3.org/2000/svg" xmlns:xlink="http://www.w3.org/1999/xlink" x="0px" y="0px"
	 width="17px" height="17px" viewBox="0 0 17 17" enable-background="new 0 0 17 17" xml:space="preserve">
<polygon fill="none" stroke="#F39200" stroke-width="0.5" stroke-linecap="round" stroke-linejoin="round" stroke-miterlimit="10" points="
	5.398,16.18 11.624,16.18 12.631,15.052 12.631,5.688 12.631,2.781 11.909,1.18 5.398,1.18 4.568,2.722 4.568,5.804 4.568,12.445 
	4.568,14.876 "/>
<polygon fill="#F39200" stroke="#F39200" stroke-width="0.25" stroke-linecap="round" stroke-miterlimit="10" points="12.462,5.395 
	4.568,5.508 4.568,14.876 5.398,16.18 11.624,16.18 12.631,15.052 "/>
<path fill="none" stroke="#F39200" stroke-width="0.5" stroke-linecap="round" stroke-miterlimit="10" d="M4.756,2.372
	c0,0,0.879,0.184,1.176,0c0.296-0.183,0.949-0.15,1.305,0.041c0.355,0.191,1.065-0.049,1.362,0.041
	C8.896,2.543,9.596,2.433,9.75,2.37c0.153-0.063,0.627-0.236,0.983-0.12c0.357,0.116,1.425,0.238,1.425,0.238l0.278-0.139"/>
<path fill="none" stroke="#F39200" stroke-linejoin="round" stroke-miterlimit="10" d="M4.568,4.382c0,0-2.845,0.01-2.845,1.013
	c0,1.002,0,5.983,0,5.983s1.008,1.185,2.845,1.422"/>
<line fill="none" stroke="#FFFFFF" stroke-width="0.5" stroke-linecap="round" stroke-miterlimit="10" x1="6.051" y1="4.975" x2="6.051" y2="13.393"/>
<line fill="none" stroke="#FFFFFF" stroke-width="0.5" stroke-linecap="round" stroke-miterlimit="10" x1="10.912" y1="4.974" x2="10.912" y2="13.393"/>
<line fill="none" stroke="#FFFFFF" stroke-width="0.5" stroke-linecap="round" stroke-miterlimit="10" x1="8.608" y1="4.976" x2="8.608" y2="13.393"/>
</svg>
