<?xml version="1.0" encoding="utf-8"?>
<!-- Generator: Adobe Illustrator 15.0.0, SVG Export Plug-In . SVG Version: 6.00 Build 0)  -->
<!DOCTYPE svg PUBLIC "-//W3C//DTD SVG 1.1//EN" "http://www.w3.org/Graphics/SVG/1.1/DTD/svg11.dtd">
<svg version="1.1" id="Ebene_1" xmlns="http://www.w3.org/2000/svg" xmlns:xlink="http://www.w3.org/1999/xlink" x="0px" y="0px"
	 width="17px" height="17px" viewBox="0 0 17 17" enable-background="new 0 0 17 17" xml:space="preserve">
<g>
	
		<path fill="#FFFFFF" stroke="#FFFFFF" stroke-width="0.25" stroke-linecap="round" stroke-linejoin="round" stroke-miterlimit="10" d="
		M9.332,17.315v-0.218V-0.316c0,0,1.539,0.262,2.21,2.741c0.529,1.526,0.79,6.481,0.79,6.481l-0.928,0.065l-0.038,8.344
		l-1.494-0.002L9.332,17.315z"/>
	
		<path fill="#FFFFFF" stroke="#FFFFFF" stroke-width="0.25" stroke-linecap="round" stroke-linejoin="round" stroke-miterlimit="10" d="
		M7.9-0.183c0,0,0,4.895,0,5.479c0,0.607-0.596,0.953-0.596,0.953l0.031,11.2H5.58L5.533,6.217c0,0-0.519-0.408-0.519-0.92
		c0-0.306,0-5.48,0-5.48H7.9z"/>
	
		<line fill="none" stroke="#FFFFFF" stroke-width="0.25" stroke-linecap="round" stroke-linejoin="round" stroke-miterlimit="10" x1="5.979" y1="4.036" x2="5.979" y2="0.256"/>
	
		<line fill="none" stroke="#FFFFFF" stroke-width="0.25" stroke-linecap="round" stroke-linejoin="round" stroke-miterlimit="10" x1="5.177" y1="3.769" x2="5.177" y2="0.256"/>
</g>
<g>
	
		<path fill="#F39200" stroke="#F39200" stroke-width="0.25" stroke-linecap="round" stroke-linejoin="round" stroke-miterlimit="10" d="
		M9.781,16.901v-0.205V0.365c0,0,1.332,1.524,1.495,2.891c0.163,1.368,0.48,5.375,0.48,5.375H10.89V16.9L9.781,16.901L9.781,16.901z
		"/>
	
		<path fill="#F39200" stroke="#F39200" stroke-width="0.25" stroke-linecap="round" stroke-linejoin="round" stroke-miterlimit="10" d="
		M7.553,4.008c0,0,0,1.165,0,1.455c0,0.291-0.548,0.729-0.548,0.729v10.844H5.878V6.19c0,0-0.545-0.437-0.545-0.727
		c0-0.292,0-1.457,0-1.457L7.553,4.008z"/>
	
		<line fill="none" stroke="#F39200" stroke-width="0.5" stroke-linecap="round" stroke-linejoin="round" stroke-miterlimit="10" x1="5.455" y1="4.159" x2="5.455" y2="0.256"/>
	
		<line fill="none" stroke="#F39200" stroke-width="0.5" stroke-linecap="round" stroke-linejoin="round" stroke-miterlimit="10" x1="7.39" y1="4.131" x2="7.39" y2="0.256"/>
	
		<path fill="none" stroke="#F39200" stroke-width="0.35" stroke-linecap="round" stroke-linejoin="round" stroke-miterlimit="10" d="
		M6.78,0.161"/>
	
		<path fill="none" stroke="#F39200" stroke-width="0.35" stroke-linecap="round" stroke-linejoin="round" stroke-miterlimit="10" d="
		M6.818,4.417"/>
</g>
<line fill="none" stroke="#F39200" stroke-width="0.5" stroke-linecap="round" stroke-linejoin="round" stroke-miterlimit="10" x1="6.458" y1="4.216" x2="6.458" y2="0.256"/>
</svg>
