<?xml version="1.0" encoding="utf-8"?>
<!-- Generator: Adobe Illustrator 15.0.0, SVG Export Plug-In . SVG Version: 6.00 Build 0)  -->
<!DOCTYPE svg PUBLIC "-//W3C//DTD SVG 1.1//EN" "http://www.w3.org/Graphics/SVG/1.1/DTD/svg11.dtd">
<svg version="1.1" id="Ebene_1" xmlns="http://www.w3.org/2000/svg" xmlns:xlink="http://www.w3.org/1999/xlink" x="0px" y="0px"
	 width="17px" height="17px" viewBox="0 0 17 17" enable-background="new 0 0 17 17" xml:space="preserve">
<g>
	
		<path fill="#F39200" stroke="#F39200" stroke-width="0.25" stroke-linecap="round" stroke-linejoin="round" stroke-miterlimit="10" d="
		M9.829,15.999v-0.187V1c0,0,1.005,1.383,1.129,2.622c0.123,1.241,0.362,4.876,0.362,4.876h-0.654v7.5L9.829,15.999L9.829,15.999z"
		/>
	
		<path fill="#F39200" stroke="#F39200" stroke-width="0.25" stroke-linecap="round" stroke-linejoin="round" stroke-miterlimit="10" d="
		M8,4.185c0,0,0,1.056,0,1.319c0,0.264-0.617,0.661-0.617,0.661v9.836L6.114,16V6.164c0,0-0.614-0.396-0.614-0.659
		c0-0.265,0-1.321,0-1.321L8,4.185z"/>
	
		<line fill="none" stroke="#F39200" stroke-width="0.5" stroke-linecap="round" stroke-linejoin="round" stroke-miterlimit="10" x1="6.372" y1="4.414" x2="6.372" y2="1"/>
	
		<line fill="none" stroke="#F39200" stroke-width="0.5" stroke-linecap="round" stroke-linejoin="round" stroke-miterlimit="10" x1="5.679" y1="4.183" x2="5.679" y2="1"/>
	
		<line fill="none" stroke="#F39200" stroke-width="0.5" stroke-linecap="round" stroke-linejoin="round" stroke-miterlimit="10" x1="7.86" y1="4.184" x2="7.86" y2="1"/>
	
		<line fill="none" stroke="#F39200" stroke-width="0.5" stroke-linecap="round" stroke-linejoin="round" stroke-miterlimit="10" x1="7.098" y1="4.414" x2="7.098" y2="1"/>
</g>
</svg>
