<?xml version="1.0" encoding="utf-8"?>
<!-- Generator: Adobe Illustrator 15.0.0, SVG Export Plug-In . SVG Version: 6.00 Build 0)  -->
<!DOCTYPE svg PUBLIC "-//W3C//DTD SVG 1.1//EN" "http://www.w3.org/Graphics/SVG/1.1/DTD/svg11.dtd">
<svg version="1.1" id="Ebene_1" xmlns="http://www.w3.org/2000/svg" xmlns:xlink="http://www.w3.org/1999/xlink" x="0px" y="0px"
	 width="17px" height="17px" viewBox="0 0 17 17" enable-background="new 0 0 17 17" xml:space="preserve">
<g>
	
		<path fill="#FFFFFF" stroke="#FFFFFF" stroke-width="0.25" stroke-linecap="round" stroke-linejoin="round" stroke-miterlimit="10" d="
		M9.489,16.375v-0.197V0.383c0,0,1.162,0.237,1.67,2.485c0.399,1.385,0.597,5.878,0.597,5.878l-0.701,0.06l-0.029,7.569
		l-1.129-0.002L9.489,16.375z"/>
	
		<path fill="#FFFFFF" stroke="#FFFFFF" stroke-width="0.25" stroke-linecap="round" stroke-linejoin="round" stroke-miterlimit="10" d="
		M8.009,0.383c0,0,0,4.439,0,4.97c0,0.551-0.541,0.864-0.541,0.864l0.028,10.159H5.904L5.862,6.188c0,0-0.471-0.37-0.471-0.834
		c0-0.278,0-4.971,0-4.971H8.009z"/>
	
		<line fill="none" stroke="#FFFFFF" stroke-width="0.25" stroke-linecap="round" stroke-linejoin="round" stroke-miterlimit="10" x1="6.267" y1="4.209" x2="6.267" y2="0.781"/>
	
		<line fill="none" stroke="#FFFFFF" stroke-width="0.25" stroke-linecap="round" stroke-linejoin="round" stroke-miterlimit="10" x1="5.539" y1="3.967" x2="5.539" y2="0.781"/>
	
		<line fill="none" stroke="#FFFFFF" stroke-width="0.25" stroke-linecap="round" stroke-linejoin="round" stroke-miterlimit="10" x1="7.655" y1="3.968" x2="7.694" y2="0.781"/>
	
		<line fill="none" stroke="#FFFFFF" stroke-width="0.25" stroke-linecap="round" stroke-linejoin="round" stroke-miterlimit="10" x1="7.03" y1="4.209" x2="7.098" y2="0.781"/>
</g>
<g>
	
		<path fill="#F39200" stroke="#F39200" stroke-width="0.25" stroke-linecap="round" stroke-linejoin="round" stroke-miterlimit="10" d="
		M9.829,15.999v-0.187V1c0,0,1.005,1.383,1.129,2.622c0.123,1.241,0.362,4.876,0.362,4.876h-0.654v7.5L9.829,15.999L9.829,15.999z"
		/>
	
		<path fill="#F39200" stroke="#F39200" stroke-width="0.25" stroke-linecap="round" stroke-linejoin="round" stroke-miterlimit="10" d="
		M7.694,4.184c0,0,0,1.056,0,1.319c0,0.264-0.497,0.661-0.497,0.661V16l-1.022-0.001V6.163c0,0-0.495-0.396-0.495-0.659
		c0-0.265,0-1.321,0-1.321L7.694,4.184z"/>
	
		<line fill="none" stroke="#F39200" stroke-width="0.35" stroke-linecap="round" stroke-linejoin="round" stroke-miterlimit="10" x1="6.372" y1="4.584" x2="6.372" y2="0.724"/>
	
		<line fill="none" stroke="#F39200" stroke-width="0.35" stroke-linecap="round" stroke-linejoin="round" stroke-miterlimit="10" x1="5.68" y1="4.321" x2="5.68" y2="0.691"/>
	
		<line fill="none" stroke="#F39200" stroke-width="0.35" stroke-linecap="round" stroke-linejoin="round" stroke-miterlimit="10" x1="7.655" y1="4.354" x2="7.655" y2="0.724"/>
	
		<line fill="none" stroke="#F39200" stroke-width="0.35" stroke-linecap="round" stroke-linejoin="round" stroke-miterlimit="10" x1="7.027" y1="4.555" x2="6.993" y2="0.695"/>
</g>
</svg>
