<?xml version="1.0" encoding="utf-8"?>
<!-- Generator: Adobe Illustrator 15.0.0, SVG Export Plug-In . SVG Version: 6.00 Build 0)  -->
<!DOCTYPE svg PUBLIC "-//W3C//DTD SVG 1.1//EN" "http://www.w3.org/Graphics/SVG/1.1/DTD/svg11.dtd">
<svg version="1.1" xmlns="http://www.w3.org/2000/svg" xmlns:xlink="http://www.w3.org/1999/xlink" x="0px" y="0px" width="17px"
	 height="17px" viewBox="0 0 17 17" enable-background="new 0 0 17 17" xml:space="preserve">
<g id="Ebene_1">
	<path fill="#312783" d="M16,8.501c0,4.142-0.411,7.5-0.917,7.5H1.917C1.411,16.001,1,12.644,1,8.501l0,0
		c0-4.143,0.411-7.5,0.917-7.5h13.166C15.589,1.001,16,4.358,16,8.501L16,8.501z"/>
</g>
<g id="Ebene_2">
	<g>
		<path fill="#FFFFFF" stroke="#FFFFFF" stroke-width="0.25" stroke-miterlimit="10" d="M4.905,11.121V6.467
			c0,0,0.081-2.259,1.695-2.259l3.932,0c1.613,0,1.694,2.26,1.694,2.26v4.653L4.905,11.121z"/>
		<path fill="#312783" stroke="#FFFFFF" stroke-width="0.25" stroke-miterlimit="10" d="M10.921,6.977c0,0,0.136-1.937-0.806-1.937
			H7.018c-0.942,0-0.813,1.741-0.813,1.741L6.198,7.489h4.729L10.921,6.977z"/>
		<circle fill="#312783" stroke="#FFFFFF" stroke-width="0.25" stroke-miterlimit="10" cx="10.928" cy="9.506" r="0.579"/>
		<circle fill="#312783" stroke="#FFFFFF" stroke-width="0.25" stroke-miterlimit="10" cx="6.198" cy="9.507" r="0.579"/>
		<line fill="#312783" stroke="#FFFFFF" stroke-width="0.5" stroke-miterlimit="10" x1="8.563" y1="2.108" x2="8.563" y2="4.207"/>
		
			<line fill="#312783" stroke="#FFFFFF" stroke-width="0.5" stroke-linecap="round" stroke-miterlimit="10" x1="7.25" y1="2.108" x2="9.832" y2="2.108"/>
		<line fill="#312783" stroke="#FFFFFF" stroke-width="0.75" stroke-miterlimit="10" x1="5.62" y1="11.068" x2="5.62" y2="12.546"/>
		
			<line fill="#312783" stroke="#FFFFFF" stroke-width="0.75" stroke-miterlimit="10" x1="11.507" y1="11.068" x2="11.507" y2="12.546"/>
		
			<line fill="#312783" stroke="#FFFFFF" stroke-width="0.75" stroke-linecap="round" stroke-miterlimit="10" x1="10.211" y1="10.689" x2="13.502" y2="15.602"/>
		
			<line fill="#312783" stroke="#FFFFFF" stroke-width="0.75" stroke-linecap="round" stroke-miterlimit="10" x1="6.789" y1="10.948" x2="3.671" y2="15.602"/>
		
			<line fill="#312783" stroke="#FFFFFF" stroke-width="0.25" stroke-miterlimit="10" x1="11.241" y1="12.226" x2="5.932" y2="12.226"/>
		
			<line fill="#312783" stroke="#FFFFFF" stroke-width="0.25" stroke-miterlimit="10" x1="12.095" y1="13.501" x2="5.078" y2="13.501"/>
		
			<line fill="#312783" stroke="#FFFFFF" stroke-width="0.25" stroke-miterlimit="10" x1="13.08" y1="14.973" x2="4.093" y2="14.973"/>
	</g>
</g>
</svg>
