<?xml version="1.0" encoding="utf-8"?>
<!-- Generator: Adobe Illustrator 15.0.0, SVG Export Plug-In . SVG Version: 6.00 Build 0)  -->
<!DOCTYPE svg PUBLIC "-//W3C//DTD SVG 1.1//EN" "http://www.w3.org/Graphics/SVG/1.1/DTD/svg11.dtd">
<svg version="1.1" id="Ebene_1" xmlns="http://www.w3.org/2000/svg" xmlns:xlink="http://www.w3.org/1999/xlink" x="0px" y="0px"
	 width="17px" height="17px" viewBox="0 0 17 17" enable-background="new 0 0 17 17" xml:space="preserve">
<path fill="#FFFFFF" stroke="#CC1417" stroke-width="0.25" stroke-miterlimit="10" d="M7.928,0.492c0.321,0,0.704,0.33,0.704,0.33
	s4.847,1.257,5.335,0.77c0.487-0.487-1.129,11.645-2.668,12.516c-1.539,0.872-1.642,1.385-2.667,1.385H7.928"/>
<path fill="#CC1417" stroke="#FFFFFF" stroke-width="0.25" stroke-miterlimit="10" d="M7.928,0.492c-0.323,0-0.704,0.33-0.704,0.33
	s-4.848,1.257-5.336,0.77C1.399,1.104,3.017,13.235,4.555,14.106c1.539,0.872,1.642,1.385,2.667,1.385h0.704"/>
<ellipse fill="#CC1417" cx="10.411" cy="5.24" rx="1.285" ry="0.717"/>
<ellipse fill="#FFFFFF" cx="5.266" cy="5.24" rx="1.285" ry="0.717"/>
<path fill="#FFFFFF" d="M7.928,12.59c0,0-2.798-0.965-3.064-1.871s2.1,1.14,3.064,0.76"/>
<path fill="#CC1417" d="M7.928,11.536c0,0,2.798,0.964,3.065,1.871c0.265,0.903-2.101-1.142-3.065-0.76"/>
<path fill="#CC1417" d="M7.928,6.19c0,0,0.262,1.38,0.934,2.428c0.672,1.048-0.116,1.368-0.934,0.899"/>
<path fill="#FFFFFF" d="M7.928,6.19c0,0-0.263,1.38-0.936,2.428C6.322,9.666,7.11,9.985,7.928,9.517"/>
</svg>
