<?xml version="1.0" encoding="utf-8"?>
<!-- Generator: Adobe Illustrator 15.0.0, SVG Export Plug-In . SVG Version: 6.00 Build 0)  -->
<!DOCTYPE svg PUBLIC "-//W3C//DTD SVG 1.1//EN" "http://www.w3.org/Graphics/SVG/1.1/DTD/svg11.dtd">
<svg version="1.1" id="Ebene_1" xmlns="http://www.w3.org/2000/svg" xmlns:xlink="http://www.w3.org/1999/xlink" x="0px" y="0px"
	 width="17px" height="17px" viewBox="0 0 17 17" enable-background="new 0 0 17 17" xml:space="preserve">
<g>
	
		<polygon fill="#009640" stroke="#009640" stroke-width="0.25" stroke-linecap="round" stroke-linejoin="round" stroke-miterlimit="10" points="
		1.001,8.799 1.001,12.496 16,12.496 16,7.738 	"/>
	<path fill="#FFFFFF" stroke="#009640" stroke-width="0.25" stroke-linejoin="round" stroke-miterlimit="10" d="M2.04,10.702
		c0,0-2.338-2.095,0-2.774s3.208-0.381,4.351,0c1.142,0.382,2.815,0.259,4.106-1.033c1.291-1.292,1.931-3.616,3.669-1.604
		c1.741,2.011,2.569,2.298,1.008,3.86c-1.564,1.563-3.046,2.365-4.46,1.551c-1.416-0.814-2.95-2.325-4.432-0.844
		c-1.481,1.483-2.639,1.714-3.208,1.469C2.503,11.082,2.244,10.905,2.04,10.702z"/>
	
		<line fill="none" stroke="#009640" stroke-width="0.5" stroke-linecap="round" stroke-linejoin="round" stroke-miterlimit="10" x1="11.576" y1="4.64" x2="11.006" y2="5.402"/>
	
		<line fill="none" stroke="#009640" stroke-width="0.5" stroke-linecap="round" stroke-linejoin="round" stroke-miterlimit="10" x1="10.68" y1="5.907" x2="9.979" y2="6.668"/>
	
		<line fill="none" stroke="#009640" stroke-width="0.5" stroke-linecap="round" stroke-linejoin="round" stroke-miterlimit="10" x1="9.442" y1="7.135" x2="8.409" y2="7.57"/>
	
		<polyline fill="none" stroke="#009640" stroke-width="0.25" stroke-linecap="round" stroke-linejoin="round" stroke-miterlimit="10" points="
		12.888,4.51 12.888,6.289 12.888,7.135 12.888,11.056 10.234,7.135 10.234,11.056 	"/>
	
		<polyline fill="none" stroke="#009640" stroke-width="0.25" stroke-linecap="round" stroke-linejoin="round" stroke-miterlimit="10" points="
		12.888,11.056 15.58,7.135 10.234,7.135 	"/>
	
		<polyline fill="none" stroke="#009640" stroke-width="0.25" stroke-linecap="round" stroke-linejoin="round" stroke-miterlimit="10" points="
		10.234,10.837 12.888,7.135 15.416,10.837 15.58,7.004 	"/>
	
		<polyline fill="none" stroke="#009640" stroke-width="0.25" stroke-linecap="round" stroke-linejoin="round" stroke-miterlimit="10" points="
		14.322,5.47 12.888,7.135 11.304,5.907 	"/>
</g>
</svg>
