<?xml version="1.0" encoding="utf-8"?>
<!-- Generator: Adobe Illustrator 15.0.0, SVG Export Plug-In . SVG Version: 6.00 Build 0)  -->
<!DOCTYPE svg PUBLIC "-//W3C//DTD SVG 1.1//EN" "http://www.w3.org/Graphics/SVG/1.1/DTD/svg11.dtd">
<svg version="1.1" id="Ebene_1" xmlns="http://www.w3.org/2000/svg" xmlns:xlink="http://www.w3.org/1999/xlink" x="0px" y="0px"
	 width="17px" height="17px" viewBox="0 0 17 17" enable-background="new 0 0 17 17" xml:space="preserve">
<path fill="#009640" stroke="#FFFFFF" stroke-width="0.5" stroke-miterlimit="10" d="M-0.778-1.138c0,0,11.229-2.174,14.489,6.314
	c3.258,8.486,5.593,10.504,6.883,11.384c1.296,0.879,0.158,2.123-0.825,1.762c-0.984-0.362-6.106-5.536-6.779-7.607
	c-0.675-2.076-2.454,0.895-2.789,1.236c-0.341,0.34-6.733,2.848-7.977,2.223C0.979,13.559-3.572,1.864-0.778-0.934V-1.138z"/>
<ellipse fill="#FFFFFF" stroke="#FFFFFF" stroke-width="0.25" stroke-linecap="round" stroke-miterlimit="10" cx="8.743" cy="3.313" rx="1.011" ry="0.691"/>
<path fill="#009640" stroke="#FFFFFF" stroke-width="0.5" stroke-linecap="round" stroke-miterlimit="10" d="M3.038-0.724
	c0,0-11.333,1.863-5.589,9.172c3.897,4.955,8.979-0.659,9.524-1.202C6.973,7.246,1.662-0.724,3.038-0.724z"/>
<path fill="#FFFFFF" stroke="#FFFFFF" stroke-width="0.25" stroke-miterlimit="10" d="M5.605,11.372c0,0,10.714,6.232,14.989,5.869
	c0,0-13.323-5.743-13.323-6.936S5.605,11.372,5.605,11.372z"/>
</svg>
